<mxfile host="app.diagrams.net" modified="2024-04-02T15:20:57.659Z" agent="Mozilla/5.0 (Windows NT 10.0; Win64; x64) AppleWebKit/537.36 (KHTML, like Gecko) Chrome/123.0.0.0 Safari/537.36" version="24.2.1" etag="f2HDxiokSbGDvJKnI5G5" type="github">
  <diagram name="Trang-1" id="q-jwsnyhnNB0fspIYyBb">
    <mxGraphModel>
      <root>
        <mxCell id="0" />
        <mxCell id="1" parent="0" />
      </root>
    </mxGraphModel>
  </diagram>
</mxfile>
